<?xml version="1.0" encoding="UTF-8" standalone="no"?>
<!-- Created with Inkscape (http://www.inkscape.org/) -->

<svg
   xmlns:dc="http://purl.org/dc/elements/1.1/"
   xmlns:cc="http://creativecommons.org/ns#"
   xmlns:rdf="http://www.w3.org/1999/02/22-rdf-syntax-ns#"
   xmlns:svg="http://www.w3.org/2000/svg"
   xmlns="http://www.w3.org/2000/svg"
   xmlns:sodipodi="http://sodipodi.sourceforge.net/DTD/sodipodi-0.dtd"
   xmlns:inkscape="http://www.inkscape.org/namespaces/inkscape"
   width="744.09448819"
   height="1052.3622047"
   id="svg16985"
   version="1.1"
   inkscape:version="0.48.3.1 r9886"
   sodipodi:docname="sinusoidal.svg">
  <sodipodi:namedview
     id="base"
     pagecolor="#ffffff"
     bordercolor="#666666"
     borderopacity="1.0"
     inkscape:pageopacity="0.0"
     inkscape:pageshadow="2"
     inkscape:zoom="0.7"
     inkscape:cx="244.87472"
     inkscape:cy="742.18511"
     inkscape:document-units="px"
     inkscape:current-layer="svg16985"
     showgrid="true"
     inkscape:window-width="1383"
     inkscape:window-height="876"
     inkscape:window-x="57"
     inkscape:window-y="24"
     inkscape:window-maximized="1">
    <inkscape:grid
       id="grid17001"
       type="xygrid" />
  </sodipodi:namedview>
  <defs
     id="defs16987" />
  <metadata
     id="metadata16990">
    <rdf:RDF>
      <cc:Work
         rdf:about="">
        <dc:format>image/svg+xml</dc:format>
        <dc:type
           rdf:resource="http://purl.org/dc/dcmitype/StillImage" />
        <dc:title></dc:title>
      </cc:Work>
    </rdf:RDF>
  </metadata>
  <g
     inkscape:label="Layer 1"
     inkscape:groupmode="layer"
     id="layer1" />
  <path
     id="path17235"
     title="sin(x)"
     d="M 103.90673,533.20122 C 97.73909,522.48341 91.70518,511.91403 89.3272,505.40196 c -2.37798,-6.51207 -0.9578,-8.80896 4.48438,-6.64224 5.44217,2.1667 14.79013,8.66803 24.75978,15.85931 9.96967,7.19126 20.29515,14.77744 27.25983,18.63381 6.96468,3.85638 10.40203,3.79814 9.64331,-0.91688 -0.75872,-4.71502 -5.62479,-13.98834 -11.59278,-24.48458 -5.96798,-10.49623 -12.777,-21.92583 -16.56189,-29.99927 -3.78488,-8.07348 -4.35691,-12.5813 -0.61072,-12.29678 3.7462,0.28451 11.75045,5.29461 21.32325,12.04546 9.5728,6.75084 20.46141,14.96197 28.7,20.23212 8.2386,5.27016 13.61854,7.36781 14.61154,4.59684 0.99301,-2.77098 -2.37011,-10.37635 -7.74897,-20.21876 -5.37886,-9.84242 -12.53203,-21.65396 -17.44207,-30.97609 -4.91004,-9.32214 -7.35104,-15.90414 -5.39062,-17.60147 1.96044,-1.6973 8.32108,1.48872 17.11976,7.38045 8.79868,5.89173 19.80821,14.23706 29.00927,20.57536 9.20106,6.3383 16.3532,10.40272 19.14395,9.62689 2.79077,-0.77585 1.19154,-6.42365 -3.23779,-15.21228 -4.42932,-8.78863 -11.4787,-20.48498 -17.17662,-30.6815 -5.69791,-10.19651 -9.79241,-18.61356 -9.61948,-22.29463 0.17293,-3.68108 4.67123,-2.56188 12.3567,2.09443 7.68551,4.6563 18.36781,12.63847 28.1724,19.64657 9.8046,7.0081 18.4711,12.75315 23.01694,13.92511 4.54584,1.17195 4.88444,-2.32527 1.7182,-9.71213 -3.16623,-7.38686 -9.66899,-18.47658 -15.77864,-29.13003 -6.10964,-10.65346 -11.56061,-20.57591 -13.08866,-26.14473 -1.52806,-5.56881 0.98096,-6.65731 7.26907,-3.55178 6.28813,3.10553 16.2112,10.2451 26.23062,17.49162 10.01943,7.24651 19.86773,14.30312 26.0394,17.27942 6.17168,2.97629 8.52642,1.71658 6.87451,-3.98969 -1.6519,-5.70626 -7.19219,-15.72784 -13.31711,-26.39823 -6.12491,-10.67041 -12.56839,-21.69434 -15.62701,-28.96178 -3.05863,-7.26743 -2.56767,-10.59556 2.10789,-9.27964 4.67556,1.31592 13.44483,7.17502 23.27978,14.2168 9.83495,7.04178 20.47419,14.97616 28.06222,19.52433 7.58805,4.54819 11.9378,5.50248 11.97674,1.67272 0.039,-3.82976 -4.17049,-12.37438 -9.91348,-22.6209 -5.74298,-10.24652 -12.76602,-21.91366 -17.10929,-30.60679 -4.34326,-8.69312 -5.79955,-14.18229 -2.87222,-14.80654 2.92733,-0.62425 10.2052,3.57967 19.46547,9.98367 9.26026,6.40401 20.26055,14.73908 28.98561,20.54912 8.72506,5.81003 14.9502,8.84565 16.77311,6.99572 1.82292,-1.84993 -0.75299,-8.58165 -5.73566,-17.98438 -4.98267,-9.40273 -12.14377,-21.22308 -17.46236,-30.99862 -5.31861,-9.77555 -8.55526,-17.24056 -7.42556,-19.85981 1.12972,-2.61924 6.65212,-0.36352 14.97586,5.00113 8.32373,5.36464 19.23736,13.60355 28.764,20.30317 9.52663,6.69961 17.41508,11.58117 21.02704,11.71671 3.61195,0.13554 2.89171,-4.53678 -0.98979,-12.71743 -3.8815,-8.18066 -10.73231,-19.65668 -16.6688,-30.11797 -5.9365,-10.46128 -10.69882,-19.61946 -11.32744,-24.1901 -0.62863,-4.57064 2.96087,-4.46003 10.03243,-0.48504 7.07155,3.97498 17.45511,11.62561 27.40832,18.79865 9.95322,7.17304 19.21081,13.57404 24.52864,15.60274 5.31782,2.02871 6.5838,-0.43931 4.08999,-7.07991 -2.49381,-6.64061 -8.60131,-17.29168 -14.76779,-28.0082 -6.16649,-10.71652 -12.12447,-21.20165 -14.3854,-27.58381 -2.26092,-6.38214 -0.68638,-8.50774 4.87913,-6.20416 5.56551,2.30359 15.00172,8.90286 24.98548,16.10979 9.98376,7.20693 20.24876,14.72597 27.10512,18.46212 6.85634,3.73615 10.1411,3.50857 9.25306,-1.34997 -0.88805,-4.85854 -5.85589,-14.24483 -11.85309,-24.77348 -5.99721,-10.52866 -12.76189,-21.90905 -16.44853,-29.87346 -3.68664,-7.96441 -4.10972,-12.30697 -0.22982,-11.87406 3.8799,0.4329 11.99824,5.56959 21.61498,12.36922 9.61676,6.79964 20.47776,14.98011 28.62938,20.15375 8.15163,5.17365 13.38814,7.11211 14.24469,4.18971 0.85655,-2.92239 -2.63151,-10.66641 -8.0685,-20.57338 -5.43701,-9.90695 -12.57962,-21.70677 -17.41507,-30.94611 -4.83545,-9.23935 -7.14027,-15.67022 -5.04237,-17.21498 2.0979,-1.54476 8.59284,1.7903 17.46315,7.76153 8.8703,5.97123 19.88646,14.32392 29.02622,20.59417 9.13975,6.27026 16.16469,10.1935 18.8186,9.26581 2.65391,-0.92769 0.91276,-6.733 -3.60078,-15.61512 -4.51354,-8.8821 -11.58664,-20.60478 -17.2373,-30.74884 -5.65067,-10.14407 -9.62848,-18.43162 -9.32106,-21.96344 0.30741,-3.53183 4.95355,-2.24856 12.7348,2.51404 7.78125,4.7626 18.50409,12.78976 28.27608,19.76164 9.77197,6.97189 18.33376,12.60072 22.74912,13.62788 4.41537,1.02716 4.60205,-2.63865 1.32969,-10.14331 -3.27238,-7.50465 -9.83199,-18.65746 -15.92404,-29.29138 -6.09207,-10.633937 -11.45159,-20.454887 -12.85479,-25.885167 -1.4032,-5.430257 1.25992,-6.347737 7.66323,-3.11436 6.40331,3.23337 16.39883,10.45336 26.41593,17.69727 10.01709,7.243927 19.78834,14.215017 25.84234,17.060717 6.054,2.84571 8.25432,1.41464 6.47961,-4.42793 -1.77472,-5.84257 -7.40217,-15.960877 -13.54003,-26.645637 -6.13788,-10.684767 -12.51965,-21.640217 -15.46922,-28.786647 -2.94958,-7.14642 -2.30583,-10.30498 2.49864,-8.84599 4.80448,1.45899 13.67455,7.42996 23.53757,14.50289 9.86302,7.07293 20.45667,14.95672 27.94565,19.394957 7.48897,4.43823 11.68941,5.22687 11.59496,1.24901 -0.0945,-3.977847 -4.41711,-12.648057 -10.20294,-22.942127 -5.78583,-10.29407 -12.77998,-21.92914 -17.03537,-30.52475 -4.25541,-8.59562 -5.56777,-13.92506 -2.50414,-14.39805 3.06363,-0.473 10.46564,3.86873 19.78302,10.33609 9.31736,6.46736 20.30576,14.78925 28.95525,20.51542 8.64949,5.72617 14.73784,8.60999 16.42329,6.60749 1.68544,-2.0025 -1.02407,-8.88249 -6.07737,-18.3636"
     style="fill:none;stroke:#000000;stroke-width:3;stroke-linecap:round;stroke-linejoin:round;stroke-miterlimit:4;stroke-opacity:1;stroke-dasharray:none;stroke-dashoffset:0"
     inkscape:connector-curvature="0"
     inkscape:export-filename="/home/till/uni/ss13/Learning Theory Seminar/edu-tub-learningtheory/presentation/images/sinusoidal.png"
     inkscape:export-xdpi="200"
     inkscape:export-ydpi="200" />
  <rect
     style="fill:none;stroke:#000000;stroke-width:5;stroke-linecap:round;stroke-linejoin:round;stroke-miterlimit:4;stroke-opacity:1;stroke-dasharray:none;stroke-dashoffset:0"
     id="rect17750"
     width="610"
     height="525"
     x="85"
     y="12.362183"
     inkscape:export-filename="/home/till/uni/ss13/Learning Theory Seminar/edu-tub-learningtheory/presentation/images/sinusoidal.png"
     inkscape:export-xdpi="200"
     inkscape:export-ydpi="200" />
  <path
     style="fill:#ff0000;stroke:#ff0000;stroke-width:5;stroke-linecap:butt;stroke-linejoin:miter;stroke-opacity:1;stroke-miterlimit:4;stroke-dasharray:10,10;stroke-dashoffset:0"
     d="M 85,537.36218 695,12.362183"
     id="path17754"
     inkscape:connector-curvature="0"
     inkscape:export-filename="/home/till/uni/ss13/Learning Theory Seminar/edu-tub-learningtheory/presentation/images/sinusoidal.png"
     inkscape:export-xdpi="200"
     inkscape:export-ydpi="200" />
  <text
     xml:space="preserve"
     style="font-size:30px;font-style:normal;font-weight:normal;line-height:125%;letter-spacing:0px;word-spacing:0px;fill:#000000;fill-opacity:1;stroke:none;font-family:Sans"
     x="177.14285"
     y="169.50504"
     id="text17775"
     sodipodi:linespacing="125%"><tspan
       sodipodi:role="line"
       id="tspan17777"
       x="177.14285"
       y="169.50504"
       style="font-size:45px">Class -1</tspan></text>
  <text
     xml:space="preserve"
     style="font-size:30px;font-style:normal;font-weight:normal;line-height:125%;letter-spacing:0px;word-spacing:0px;fill:#000000;fill-opacity:1;stroke:none;font-family:Sans"
     x="460"
     y="419.50504"
     id="text17779"
     sodipodi:linespacing="125%"><tspan
       sodipodi:role="line"
       id="tspan17781"
       x="460"
       y="419.50504"
       style="font-size:45px">Class 1</tspan></text>
</svg>
